<?xml version="1.0" standalone="no"?>
<!DOCTYPE svg PUBLIC "-//W3C//DTD SVG 20010904//EN"
 "http://www.w3.org/TR/2001/REC-SVG-20010904/DTD/svg10.dtd">
<svg version="1.0" xmlns="http://www.w3.org/2000/svg"
 width="1366.000000pt" height="1366.000000pt" viewBox="0 0 1366.000000 1366.000000"
 preserveAspectRatio="xMidYMid meet">

<g transform="translate(0.000000,1366.000000) scale(0.100000,-0.100000)"
fill="#000000" stroke="none">
<path d="M9615 12776 c-77 -35 -105 -103 -105 -257 0 -219 53 -385 255 -796
l143 -293 -467 -429 c-258 -236 -480 -444 -495 -461 -62 -74 -7 -190 90 -190
27 0 172 67 586 270 303 149 552 269 553 268 12 -14 475 -967 475 -979 0 -9
-38 -99 -85 -200 -47 -101 -85 -192 -85 -202 0 -27 27 -75 49 -87 47 -25 89
-11 302 96 116 58 212 104 214 102 2 -2 17 -64 34 -138 164 -723 173 -1501 25
-2240 -58 -293 -166 -654 -280 -943 -66 -167 -244 -535 -334 -692 -134 -233
-337 -527 -513 -744 -90 -110 -289 -331 -298 -331 -3 0 54 244 128 543 372
1504 385 1561 387 1747 2 183 -47 306 -168 425 -147 146 -343 201 -570 160
-108 -19 -178 -56 -257 -134 -120 -120 -171 -234 -243 -541 -93 -397 -856
-3816 -854 -3826 4 -15 182 61 413 176 1589 786 2697 2320 2949 4082 43 298
51 416 51 773 0 345 -8 464 -46 745 -39 282 -118 630 -204 896 l-42 131 220
109 c121 60 228 120 238 133 28 35 24 85 -8 121 -25 26 -47 34 -228 75 -110
26 -204 51 -210 56 -5 5 -116 227 -247 492 l-237 482 192 95 c106 52 356 176
556 275 388 192 401 200 401 270 0 43 -35 94 -75 111 -34 14 -70 8 -669 -96
-348 -60 -642 -110 -652 -110 -15 0 -49 59 -157 278 -77 152 -159 311 -185
352 -184 300 -421 485 -547 426z"/>
<path d="M2683 7406 c-145 -28 -290 -123 -372 -246 -106 -160 -121 -333 -56
-655 23 -116 691 -2825 697 -2829 130 -93 606 -329 873 -433 105 -41 438 -153
443 -149 4 5 -806 3611 -833 3707 -61 216 -139 397 -203 470 -47 53 -133 102
-218 124 -85 22 -244 27 -331 11z"/>
<path d="M6067 7410 c-167 -21 -292 -79 -409 -189 -94 -88 -156 -172 -202
-273 -40 -87 -117 -324 -175 -538 -558 -2066 -897 -3346 -887 -3351 17 -10
308 -76 436 -98 144 -26 387 -57 505 -66 l91 -7 388 1423 c214 783 391 1429
395 1436 3 6 197 -698 430 -1565 234 -868 426 -1579 428 -1581 1 -2 53 6 115
18 323 64 888 240 888 276 0 15 -950 3524 -1000 3695 -94 320 -150 448 -244
559 -158 184 -313 257 -571 266 -66 2 -151 0 -188 -5z"/>
<path d="M1766 4648 c4 -7 41 -62 82 -123 287 -421 662 -825 1062 -1146 l136
-109 153 -622 c266 -1077 301 -1202 392 -1378 112 -218 260 -337 478 -382 79
-17 120 -19 231 -15 233 10 351 58 496 202 141 141 183 224 294 592 42 136
250 885 250 897 0 2 -24 7 -52 10 -29 4 -123 21 -208 37 -935 181 -1801 600
-2530 1225 -225 192 -511 491 -710 742 -36 44 -69 81 -73 82 -5 0 -5 -6 -1
-12z"/>
<path d="M9230 3021 c-549 -354 -1216 -616 -1905 -751 -87 -17 -160 -32 -160
-33 -3 -6 114 -420 176 -622 103 -338 172 -464 321 -584 142 -115 259 -153
478 -154 258 -1 384 45 531 192 140 141 190 244 291 606 54 195 350 1386 345
1391 -1 1 -36 -19 -77 -45z"/>
</g>
</svg>
